<?xml version="1.0" standalone="no"?>
<!DOCTYPE svg PUBLIC "-//W3C//DTD SVG 1.1//EN" "http://www.w3.org/Graphics/SVG/1.1/DTD/svg11.dtd" >
<svg xmlns="http://www.w3.org/2000/svg">
<metadata>
<json>
{
	"fontFamily": "Appa-Sariicons",
	"majorVersion": 2,
	"minorVersion": 0,
	"fontURL": "http://sariina.com",
	"description": "Icons made for Appa by Sariina\nFont generated by IcoMoon.",
	"copyright": "Rights reserved for Sariina (c) 2014",
	"designerURL": "http://artless.ir",
	"license": "Free",
	"version": "Version 2.0",
	"fontId": "Appa-Sariicons",
	"psName": "Appa-Sariicons",
	"subFamily": "Regular",
	"fullName": "Appa-Sariicons"
}
</json>
</metadata>
<defs>
<font id="Appa-Sariicons" horiz-adv-x="1024">
<font-face units-per-em="1024" ascent="960" descent="-64" />
<missing-glyph horiz-adv-x="1024" />
<glyph unicode="&#x20;" d="" horiz-adv-x="512" />
<glyph unicode="&#xe600;" d="M384 320h-64v-64h-64v-64h-64v-64h-64v-64h-64v-64h960v64h-64v64h-64v64h-64v64h-64v64h-64v-64h-64v-64h-192v64h-64v64zM128 576h-64v-448h64v64h64v64h64v64h64v64h-64v64h-64v64h-64v64zM1024 576h-64v-64h-64v-64h-64v-64h-64v-64h64v-64h64v-64h64v-64h64v448zM768 384v64h64v64h64v64h64v64h64v64h-960v-64h64v-64h64v-64h64v-64h64v-64h64v-64h64v-64h192v64h64v64h64z" />
<glyph unicode="&#xe601;" d="M384 448h-384v-448h384v448zM64 384h64v-64h128v64h64v-320h-256v320zM192 192v64h-64v-128h128v64h-64zM448 192v-192h576v64h-64v64h-64v64h-64v64h-64v64h-64v-64h-64v-64h-192zM1024 576h-64v-64h-64v-64h-64v-64h-64v-64h64v-64h64v-64h64v-64h64v448zM768 384v64h64v64h64v64h64v64h64v64h-960v-192h384v-256h192v64h64v64h64z" />
<glyph unicode="&#xe602;" d="M256 896h-256v-256h256v256zM256 576h-256v-256h256v256zM64 384v128h128v-128h-128zM256 256h-256v-256h256v256zM64 64v128h128v-128h-128zM768 384v64h64v64h64v64h64v64h64v64h-704v-320h64v-64h64v-64h192v64h64v64h64zM384 320h-64v-320h704v64h-64v64h-64v64h-64v64h-64v64h-64v-64h-64v-64h-192v64h-64v64zM960 576v-64h-64v-64h-64v-64h-64v-64h64v-64h64v-64h64v-64h64v448h-64z" />
<glyph unicode="&#xe603;" d="M512 256v-128h256v-128h64v64h64v64h64v64h64v64h-512zM768 576h-64v-64h-64v-64h-64v-64h-64v-64h512v128h-256v128zM256 384h-64v-64h-64v-64h-64v-64h-64v-64h448v192h-64v64h-64v64h-64v-64zM64 704h-64v-448h64v64h64v64h64v64h64v64h-64v64h-64v64h-64v64zM960 704h-64v-64h-64v-128h128v192zM960 768v64h-960v-64h64v-64h64v-64h64v-64h64v-64h64v-64h64v-64h64v64h64v64h64v64h64v64h192v64h64v64h64z" />
<glyph unicode="&#xe604;" d="M640 384h-64v-64h-64v-128h64v64h128v64h64v-64h-64v-64h128v128h64v-64h64v-64h64v128h-64v64h-64v64h-256v-64zM960 192h-64v-64h64v64zM896 64v64h-256v-64h256zM640 192h-64v-64h64v64zM832 704h64v64h64v64h-960v-64h64v-64h64v-64h64v-64h64v-64h64v-64h64v-64h128v64h64v64h128v64h64v64h64v64zM256 384h-64v-64h-64v-64h-64v-64h-64v-64h448v192h-64v64h-64v64h-64v-64zM960 704h-64v-64h-64v-128h128v192zM64 704h-64v-448h64v64h64v64h64v64h64v64h-64v64h-64v64h-64v64z" />
<glyph unicode="&#xe605;" d="M512 192v-128h256v-128h64v64h64v64h64v64h64v64h-512zM640 320h-64v-64h64v64zM960 256v64h-64v-64h64zM640 512h-64v-64h-64v-128h64v64h128v64h64v-64h-64v-64h128v128h64v-64h64v-64h64v128h-64v64h-64v64h-256v-64zM960 768v64h-960v-64h64v-64h64v-64h64v-64h64v-64h64v-64h64v-64h64v128h64v64h64v64h256v64h64v64h64zM256 448v-64h-64v-64h-64v-64h-64v-64h-64v-64h448v192h-64v64h-64v64h-64zM960 704h-64v-64h64v64zM64 704h-64v-448h64v64h64v64h64v64h64v64h-64v64h-64v64h-64v64z" />
<glyph unicode="&#xe606;" d="M832 384v64h-64v-128h-256v-192h256v-128h64v64h64v64h64v64h64v64h-64v64h-64v64h-64zM256 384h-64v-64h-64v-64h-64v-64h-64v-64h448v192h-64v64h-64v64h-64v-64zM64 704h-64v-448h64v64h64v64h64v64h64v64h-64v64h-64v64h-64v64zM640 448v-64h64v64h-64zM832 704h64v64h64v64h-960v-64h64v-64h64v-64h64v-64h64v-64h64v-64h64v-64h192v64h64v64h64v64h64v64h64v64zM960 704h-64v-64h-64v-64h-64v-64h128v-64h64v256z" />
<glyph unicode="&#xe607;" d="M704 448v-64h-64v-64h-64v-64h-64v-64h64v-64h64v-64h64v-64h64v128h256v192h-256v128h-64zM256 384h-64v-64h-64v-64h-64v-64h-64v-64h448v192h-64v64h-64v64h-64v-64zM64 704h-64v-448h64v64h64v64h64v64h64v64h-64v64h-64v64h-64v64zM832 704h64v64h64v64h-960v-64h64v-64h64v-64h64v-64h64v-64h64v-64h64v-64h192v64h64v64h64v64h64v64h64v64zM960 704h-64v-64h-64v-64h-64v-64h64v-128h128v320z" />
<glyph unicode="&#xe608;" d="M896 384h-64v-64h-64v-64h-64v-64h-64v-64h-128v64h-192v-128h64v-64h64v-64h192v64h64v64h64v64h64v64h64v64h64v64h64v128h-128v-64zM64 704h-64v-448h64v64h64v64h64v64h64v64h-64v64h-64v64h-64v64zM832 704h64v64h64v64h-960v-64h64v-64h64v-64h64v-64h64v-64h64v-64h64v-64h192v64h64v64h64v64h64v64h64v64zM960 704h-64v-64h-64v-64h-64v-64h-64v-64h-64v-64h-64v-64h-192v64h-64v64h-64v-64h-64v-64h-64v-64h-64v-64h-64v-64h256v128h384v64h64v64h64v64h64v64h128v192z" />
<glyph unicode="&#xe609;" d="M704 384h-128v-128h64v-64h64v-64h-64v-64h-64v-128h128v64h64v64h64v-64h64v-64h128v128h-64v64h-64v64h64v64h64v128h-128v-64h-64v-64h-64v64h-64v64zM256 384h-64v-64h-64v-64h-64v-64h-64v-64h576v64h-64v128h-128v64h-64v64h-64v-64zM64 704h-64v-448h64v64h64v64h64v64h64v64h-64v64h-64v64h-64v64zM832 704h64v64h64v64h-960v-64h64v-64h64v-64h64v-64h64v-64h64v-64h64v-64h128v64h128v64h64v64h64v64h64v64zM960 704h-64v-64h-64v-64h-64v-64h-64v-64h64v-64h64v64h128v256z" />
<glyph unicode="&#xe60a;" d="M896-64v128h-128v-128h128zM704 512h-64v-192h128v192h128v-192h-64v-64h-64v-128h128v128h128v256h-64v64h-256v-64zM256 384h-64v-64h-64v-64h-64v-64h-64v-64h704v128h-128v64h-192v64h-64v64h-64v-64zM64 704h-64v-448h64v64h64v64h64v64h64v64h-64v64h-64v64h-64v64zM832 704h64v64h64v64h-960v-64h64v-64h64v-64h64v-64h64v-64h64v-64h64v-64h192v192h64v64h192v64zM960 704h-64v-64h64v64z" />
<glyph unicode="&#xe60b;" d="M896 384h-256v-64h-64v-192h-64v-64h64v-64h64v-64h64v64h64v64h64v64h-64v128h128v-256h128v256h-64v64h-64v64zM256 384h-64v-64h-64v-64h-64v-64h-64v-64h448v64h64v128h-128v64h-64v64h-64v-64zM64 704h-64v-448h64v64h64v64h64v64h64v64h-64v64h-64v64h-64v64zM832 704h64v64h64v64h-960v-64h64v-64h64v-64h64v-64h64v-64h64v-64h64v-64h192v64h64v64h64v64h64v64h64v64zM960 704h-64v-64h-64v-64h-64v-64h-64v-64h256v256z" />
<glyph unicode="&#xe60c;" d="M320 256v-64h-64v-64h-64v-64h-64v-64h-64v-64h960v64h-64v64h-64v64h-64v64h-64v64h-64v-64h-64v-64h-192v64h-64v64h-64zM832 640v64h-576v-64h576zM832 512v64h-576v-64h576zM768 384v64h-448v-64h448zM1024 512h-64v320h-832v-320h-64v-448h64v64h64v64h64v64h64v64h-64v64h-64v384h704v-384h-64v-64h-64v-64h64v-64h64v-64h64v-64h64v448z" />
<glyph unicode="&#xe60d;" d="M384 256h-64v-64h-64v-64h-64v-64h-64v-64h-64v-64h960v64h-64v64h-64v64h-64v64h-64v64h-64v-64h-64v-64h-192v64h-64v64zM128 512h-64v-448h64v64h64v64h64v64h64v64h-64v64h-64v64h-64v64zM960 448v-64h-64v-64h-128v-64h64v-64h64v-64h64v-64h64v384h-64zM640 448h-64v64h-64v128h-448v-64h64v-64h64v-64h64v-64h64v-64h64v-64h64v-64h192v64h64v128h-64v64zM576 640v-64h64v-64h64v-64h64v-64h64v64h64v64h64v64h64v64h-128v256h-192v-256h-128z" />
<glyph unicode="&#xe60e;" d="M320 128v128h-192v64h-64v-320h960v320h-64v-64h-192v-128h-448zM192 448v-64h64v64h-64zM192 384h-64v-64h64v64zM832 384h64v64h-64v-64zM960 384h-64v-64h64v64zM704 448v64h64v64h-128v256h-192v-256h-128v-64h64v-64h64v-64h64v-64h64v64h64v64h64z" />
<glyph unicode="&#xe60f;" d="M384 448h-384v-448h384v448zM64 384h64v-64h128v64h64v-320h-256v320zM256 192h-64v64h-64v-128h128v64zM1024 382.4h-64v-64h-192v-128h-320v-128h576v320zM896 446.4v-64h64v64h-64zM896 510.4h-64v-64h64v64zM704 510.4h64v64h64v64h-128v256h-192v-256h-128v-64h64v-64h64v-64h64v-64h64v64h64v64z" />
<glyph unicode="&#xe610;" d="M320 128v128h-192v64h-64v-320h960v320h-64v-64h-192v-128h-448zM192 448v-64h64v64h-64zM192 384h-64v-64h64v64zM832 384h64v64h-64v-64zM960 384h-64v-64h64v64zM640 768h-64v64h-64v-64h-64v-64h-64v-64h-64v-64h128v-256h192v256h128v64h-64v64h-64v64z" />
<glyph unicode="&#xe611;" d="M384 448h-384v-448h384v448zM64 384h64v-64h128v64h64v-320h-256v320zM256 192h-64v64h-64l-1.6-128h129.6v64zM1024 384h-64v-64h-192v-128h-320v-128h576v320zM896 448v-64h64v64h-64zM896 512h-64v-64h64v64zM576 832v64h-64v-64h-64v-64h-64v-64h-64v-64h128v-256h192v256h128v64h-64v64h-64v64h-64z" />
<glyph unicode="&#xe612;" d="M512 320v-128h128v128h-128zM384 128v128h-256v64h-64v-320h960v320h-64v-64h-192v-128h-384zM192 448v-64h64v64h-64zM192 384h-64v-64h64v64zM832 384h64v64h-64v-64zM960 384h-64v-64h64v64zM704 768v64h-256v-64h-64v-192h128v192h128v-192h-64v-64h-64v-128h128v128h128v256h-64z" />
<glyph unicode="&#xe613;" d="M640 832v64h-256v-64h-64v-384h64v-64h64v-64h-64v-64h-192v-64h-64v-64h-64v-192h896v192h-64v64h-64v64h-192v64h-64v64h64v64h64v384h-64z" />
<glyph unicode="&#xe614;" d="M384 384h-384v-448h384v448zM256 256v64h64v-320h-256v320h64v-64h128zM256 64v64h-64v64h-64v-128h128zM704 896v64h-256v-64h-64v-384h64v-64h64v-64h-64v-384h576v192h-64v64h-64v64h-192v64h-64v64h64v64h64v384h-64z" />
<glyph unicode="&#xe615;" d="M320 192v128h-128v-128h-128v-128h128v-128h128v128h128v128h-128zM704 896v64h-256v-64h-64v-384h64v-64h64v-64h-64v-64h-64v-64h128v-256h512v192h-64v64h-64v64h-192v64h-64v64h64v64h64v384h-64z" />
<glyph unicode="&#xe616;" d="M576 448v384h-64v64h-256v-64h-64v-384h64v-64h64v-64h-64v-64h-128v-64h-64v-64h-64v-192h768v192h-64v64h-64v64h-128v64h-64v64h64v64h64zM896 768v64h-256v-512h64v-64h64v-64h64v-256h192v256h-64v64h-64v64h-64v64h64v64h64v320h-64z" />
<glyph unicode="&#xe617;" d="M192 512h-64v-128h-128v-320h128v-128h64v64h64v64h64v64h64v64h64v64h-64v64h-64v64h-64v64h-64v64zM704 896v64h-256v-64h-64v-384h64v-64h64v-64h-64v-64h64v-192h-64v-64h-64v-64h448v256h-64v64h-64v64h-64v64h64v64h64v384h-64zM960 896h-128v-448h-64v-64h64v-64h64v-320h128v320h-64v64h-64v64h64v64h64v320h-64v64z" />
<glyph unicode="&#xe618;" d="M384 64v128h-128v128h-128v-128h-128v-128h128v-128h128v128h128zM576 512v384h-64v64h-256v-64h-64v-384h64v-64h64v-192h128v-256h320v192h-64v64h-64v64h-128v64h-64v64h64v64h64zM896 832v64h-256v-512h64v-64h64v-64h64v-256h192v256h-64v64h-64v64h-64v64h64v64h64v320h-64z" />
<glyph unicode="&#xe619;" d="M832 192v64h-192v-128h-64v-192h384v192h-64v64h-64zM384 128v128h-192v-64h-64v-64h-64v-192h384v192h-64zM640 832v64h-256v-64h-64v-384h64v-64h64v-64h128v64h64v64h64v384h-64z" />
<glyph unicode="&#xe61a;" d="M896 256v64h-192v-128h-64v-192h384v192h-64v64h-64zM512 192h-64v-192h64v192zM384 384h-384v-448h384v448zM256 256v64h64v-320h-256v320h64v-64h128zM256 64v64h-64v64h-64v-128h128zM704 896v64h-256v-64h-64v-384h64v-64h64v-64h128v64h64v64h64v384h-64z" />
<glyph unicode="&#xe61b;" d="M897.6 256v64h-192v-128h-64v-192h384v192h-64v64h-64zM448 320h-64v-64h64v64zM512 192h-64v-192h65.6l-1.6 192zM385.6 64v128h-128v128h-128v-128h-128v-128h128v-128h128v128h128zM705.6 896v64h-256v-64h-64v-384h64v-64h64v-64h128v64h64v64h64v384h-64z" />
<glyph unicode="&#xe61c;" d="M64 128h-64v-192h320v192h-64v128h-128v-64h-64v-64zM512 128h-64v-192h320v192h-64v64h-64v64h-128v-128zM576 448v384h-64v64h-256v-64h-64v-384h64v-64h64v-64h128v64h64v64h64zM896 768v64h-256v-512h64v-64h64v-64h64v-256h192v256h-64v64h-64v64h-64v64h64v64h64v320h-64z" />
<glyph unicode="&#xe61d;" d="M512 192h-64v-192h320v192h-64v64h-64v64h-128v-128zM384 64v128h-128v128h-128v-128h-128v-128h128v-128h128v128h128zM576 512v384h-64v64h-256v-64h-64v-384h64v-64h64v-64h128v64h64v64h64zM896 832v64h-256v-512h64v-64h64v-64h64v-256h192v256h-64v64h-64v64h-64v64h64v64h64v320h-64z" />
<glyph unicode="&#xe61e;" d="M256 192h-256v-256h256v256zM64 128h128v-128h-128v128zM256 512h-256v-256h256v256zM64 448h128v-128h-128v128zM256 832h-256v-256h256v256zM768 832v64h-256v-64h-64v-384h64v-64h64v-64h-64v-64h-128v-64h-64v-256h704v192h-64v64h-64v64h-128v64h-64v64h64v64h64v384h-64z" />
<glyph unicode="&#xe61f;" d="M576 448v384h-64v64h-256v-64h-64v-384h64v-64h64v-64h-64v-64h-128v-64h-64v-64h-64v-192h704v128h-256v320h64v64h64zM832 384v64h-64v-128h-256v-192h256v-128h64v64h64v64h64v64h64v64h-64v64h-64v64h-64z" />
<glyph unicode="&#xe620;" d="M896 704h-64v-64h-64v-64h-512v-64h-64v-64h-64v-192h64v-64h64v-64h128v-128h256v128h128v-64h64v-64h64v704zM448 64v64h128v-64h-128z" />
<glyph unicode="&#xe621;" d="M192 192v64h-64v-128h128v64h-64zM384 448h-384v-448h384v448zM64 384h64v-64h128v64h64v-320h-256v320zM256 192h-64v-64h64v64zM192 192v64h-64v-64h64zM1024 768h-64v-64h-64v-64h-512v-64h-64v-64h128v-320h64v-128h256v128h128v-64h64v-64h64v704zM576 128v64h128v-64h-128z" />
<glyph unicode="&#xe622;" d="M320 384h-128v-128h-128v-128h128v-128.32h128v128.32h128v128h-128v128zM1024 768h-64v-64.32h-64v-64h-512v-64h-64v-63.68h-64v-64h128v-128h128v-256.64h256v128.32h128v-64h64v-64.32h64v704.64zM576 127.68v64h128v-64h-128z" />
<glyph unicode="&#xe623;" d="M960 192v64h-64v-64h64zM1024 192h-64v-64h64v64zM1024 384h-128v-64h128v64zM960 512h-64v-64h64v64zM960 512h64v64h-64v-64zM704 640v-64h-512v-64h-64v-64h-64v-192h64v-64h64v-64h128v-128.32h256v128.32h128v-64h64v-64.32h64v704.64h-64v-64.32h-64zM512 64h-128v64h128v-64z" />
<glyph unicode="&#xe624;" d="M1024 0v640h-960v-640h960zM768 384v128h128v-128h-128zM192 256v64h704v-64h-704zM192 128v64h704v-64h-704z" />
<glyph unicode="&#xe625;" d="M384 448h-384v-448h384v448zM64 384h64v-64h128v64h64v-320h-256v320zM128 256v-128h128v64h-64v64h-64zM64 704v-192h384v-448h576v640h-960zM768 448v128h128v-128h-128zM512 192v64h384v-64h-384zM896 384v-64h-384v64h384z" />
<glyph unicode="&#xe626;" d="M64 704v-256h256v-128h128v-256h576v640h-960zM768 448v128h128v-128h-128zM512 192v64h384v-64h-384zM896 384v-64h-384v64h384zM256 384h-128v-128h-128v-128h128v-128h128v128h128v128h-128v128z" />
<glyph unicode="&#xe627;" d="M640 576v256h-192v-256h192zM704 640v-128h-320v128h-320v-640h960v640h-320zM768 384v128h128v-128h-128zM192 256v64h704v-64h-704zM192 128v64h704v-64h-704z" />
<glyph unicode="&#xe628;" d="M832 768v128h-832v-704h192v-192h832v768h-192zM832 704h128v-640h-704v128h576v512zM704 768v-64h-576v64h576zM704 640v-64h-576v64h576zM704 512v-64h-576v64h576zM384 384h320v-64h-320v64z" />
<glyph unicode="&#xe629;" d="M256 384h-128v-128h-128v-128h128v-128h128v128h128v128h-128v128zM832 768v128h-832v-448h320v-128h128v-128h384v512h128v-640h-640v-64h704v768h-192zM704 768v-64h-576v64h576zM704 512v-64h-320v64h320zM704 640v-64h-576v64h576zM512 384h192v-64h-192v64z" />
<glyph unicode="&#xe62a;" d="M448 448v-192h192v192h-192zM192 192v-192h704v192h-704zM384 448h-192v-192h192v192zM192 704v-192h192v192h-192zM896 448h-192v-192h192v192zM640 512v192h-192v-192h192zM704 704v-192h192v192h-192z" />
<glyph unicode="&#xe62b;" d="M448 256v-192h576v192h-576zM384 448h-384v-448h384v448zM64 384h64v-64h128v64h64v-320h-256v320zM192 256h-64v-128h128v64h-64v64zM512 512h-64v-192h64v192zM512 768h-192v-192h192v192zM1024 512h-192v-192h192v192zM768 512h-192v-192h192v192zM768 768h-192v-192h192v192zM1024 768h-192v-192h192v192z" />
<glyph unicode="&#xe62c;" d="M512 256v-192h512v192h-512zM320 384h-128v-128h-128v-128h128v-128h128v128h128v128h-128v128zM320 448h64v-128h128v192h-192v-64zM512 768h-192v-192h192v192zM1024 512h-192v-192h192v192zM768 512h-192v-192h192v192zM768 768h-192v-192h192v192zM1024 768h-192v-192h192v192z" />
<glyph unicode="&#xe62d;" d="M1024 64v192h-384v-64h64v-128h320zM448 832v64h-256v-64h-64v-384h64v-64h64v-64h-64v-64h-64v-64h-64v-64h-64v-192h640v192h-64v64h-64v64h-64v64h-64v64h64v64h64v384h-64zM1024 512h-192v-192h192v192zM768 512h-192v-192h192v192zM768 768h-192v-192h192v192zM1024 768h-192v-192h192v192z" />
<glyph unicode="&#xe62e;" d="M128 64v-64h768v64h-768zM320 128v64h-64v64h-64v64h-64v-192h192zM576 768v-64h-64v-64h-64v-64h-64v-64h-64v-64h-64v-64h-64v-64h64v-64h64v-64h64v64h64v64h64v64h64v64h64v64h64v64h64v64h64v128h-64v64h-128v-64h-64z" />
<glyph unicode="&#xe62f;" d="M64 64v-64h512v64h-512zM1024 448h-384v-448h384v448zM704 384h64v-64h128v64h64v-320h-256v320zM896 128v64h-64v64h-64v-128h128zM256 192h-64v64h-64v64h-64v-192h192v64zM768 768h-64v64h-128v-64h-64v-64h-64v-64h-64v-64h-64v-64h-64v-64h-64v-64h-64v-64h64v-64h64v-64h64v64h64v64h64v64h64v64h64v64h64v64h64v64h64v128z" />
<glyph unicode="&#xe630;" d="M64 896v-960h960v960h-960zM960 832v-832h-832v832h832zM384 64v64h-64v64h-64v64h-64v-192h192zM832 704v64h-128v-64h-64v-64h-64v-64h-64v-64h-64v-64h-64v-64h-64v-64h-64v-64h64v-64h64v-64h64v64h64v64h64v64h64v64h64v64h64v64h64v64h64v128h-64z" />
<glyph unicode="&#xe631;" d="M1024 384h-384v-448h384v448zM896 320h64v-320h-256v320h64v-64h128v64zM832 128v64h-64v-128h128v64h-64zM896 448h64v448h-960v-960h576v64h-512v832h832v-384zM320 64v64h-64v64h-64v64h-64v-192h192zM640 704h-64v-64h-64v-64h-64v-64h-64v-64h-64v-64h-64v-64h-64v-64h64v-64h64v-64h64v64h64v64h64v64h64v128h128v64h64v64h64v128h-64v64h-128v-64z" />
<glyph unicode="&#xe632;" d="M64 128v-128h960v128h-960zM128 320h-64v-128h64v128zM512 256v-64h512v128h-448v-64h-64zM320 640h64v64h-320v-128h256v64zM192 512h-128v-128h64v64h64v64zM768 448h-64v-64h320v128h-256v-64zM256 384h-64v-192h192v64h-64v64h-64v64zM832 832v64h-128v-64h-64v-64h-64v-64h-64v-64h-64v-64h-64v-64h-64v-64h-64v-64h64v-64h64v-64h64v64h64v64h64v64h64v64h64v64h64v64h64v64h64v128h-64zM1024 704h-64v-64h-64v-64h128v128z" />
<glyph unicode="&#xe633;" d="M1024 896h-960v-960h960v960zM960 832v-832h-832v832h832zM448 192v-64h448v64h-448zM384 64v192h-192v-192h192zM192 768v-192h192v192h-192zM896 640v64h-448v-64h448zM896 512h-192v-192h192v192zM640 384v64h-448v-64h448z" />
<glyph unicode="&#xe634;" d="M1024 896h-960v-960h960v960zM960 832v-832h-832v832h832zM896 704h-64v-64h-64v-64h-64v-64h-64v-64h-64v-64h-64v-64h-64v64h-64v64h-128v-64h-64v-64h64v-64h64v-64h64v-64h64v-64h64v64h64v64h64v64h64v64h64v64h64v64h64v256z" />
<glyph unicode="&#xe635;" d="M64 896v-960h960v960h-960zM960 832v-832h-832v832h832zM704 512h64v64h64v128h-128v-64h-64v-64h-64v-64h-64v-64h-64v-64h-64v-64h-64v-64h-64v-128h128v64h64v64h64v64h64v64h64v64h64v64z" />
<glyph unicode="&#xe636;" d="M1024 896h-960v-960h960v960zM960 832v-832h-832v832h832zM192 320h704v192h-704v-192z" />
<glyph unicode="&#xe637;" d="M1024 896h-960v-960h960v960zM960 832v-832h-832v832h832zM704 512h64v64h64v128h-128v-64h-64v-64h-64v-64h-64v64h-64v64h-64v64h-128v-128h64v-64h64v-64h64v-64h-64v-64h-64v-64h-64v-128h128v64h64v64h64v64h64v-64h64v-64h64v-64h128v128h-64v64h-64v64h-64v64h64v64z" />
<glyph unicode="&#xe638;" d="M704 448v-64h192v-384h-704v384h192v64h-256v-512h832v512h-256zM704 704h-64v64h-64v64h-64v-64h-64v-64h-64v-64h-64v-64h128v-320h192v320h128v64h-64v64z" />
<glyph unicode="&#xe639;" d="M768 448v-64h128v-384h-704v384h128v64h-192v-512h832v512h-192zM768 512v64h-128v320h-192v-320h-128v-64h64v-64h64v-64h64v-64h64v64h64v64h64v64h64z" />
<glyph unicode="&#xe63a;" d="M512 512v64h-384v-576h704v320h-64v-256h-576v448h320zM704 640v-64h-64v-64h-64v-64h-64v-64h-64v-64h-64v-128h128v64h64v64h64v64h64v64h64v64h64v-128h64v320h-320v-64h128z" />
<glyph unicode="&#xe63b;" d="M512 576v-64h320.32v-448h-576.32v256h-64v-320h704.32v576h-384.32zM640 448h-64v-128h-63.68v64h-64v64h-64v64h-64v64h-64v64h-128v-128h64v-64h64v-64h64v-64h64v-64h64v-64h-128v-64h319.68v320z" />
<glyph unicode="&#xe63c;" d="M512 512v64h-384v-576.32h704v256h-64v-192h-576v448.32h320zM576 640v-64h192l-384-384v-64h64l384 384v-192h64v320h-320z" />
<glyph unicode="&#xe63d;" d="M512 576v-64h320.32v-448h-576.32v256h-64v-320h704.32v576h-384.32zM640 448h-64v-192l-384 384h-63.68v-64l383.68-384h-191.68v-64h319.68v320z" />
<glyph unicode="&#xe63e;" d="M448 256h-64v-256h320v256h-64v-192h-192v192zM256 640h-64v-128h-128v-192h128v-128h64v64h64v64h64v64h64v64h-64v64h-64v64h-64v64zM640 576h64v256h-320v-256h64v192h192v-192zM768 512h-64v-64h-64v-64h64v-64h64v-64h64v-64h64v128h128v192h-128v128h-64v-64h-64v-64z" />
<glyph unicode="&#xe63f;" d="M832 384h-64v-128h-512v128h-64v64h-64v-320h64v-64h576v-128h64v64h64v64h64v64h64v64h-64v64h-64v64h-64v64zM896 704v64h-576v128h-64v-64h-64v-64h-64v-64h-64v-64h64v-64h64v-64h64v-64h64v128h512v-128h64v-64h64v320h-64z" />
<glyph unicode="&#xe640;" d="M320 256h64v64h-64v-64zM704 576v64h-128v64h-64v-64h-128v-64h-64v-128h64v-64h128v-128h-128v-64h128v-64h64v64h128v64h64v128h-64v64h-128v128h128zM576 384h64v-128h-64v128zM448 576h64v-128h-64v128zM704 576v-64h64v64h-64zM192 64v-64h704v64h-704zM192 768h-64v-704h64v704zM960 768h-64v-704h64v704zM896 768v64h-704v-64h704z" />
<glyph unicode="&#xe641;" d="M384 448h-384v-448h384v448zM64 384h64v-64h128v64h64v-320h-256v320zM256 192h-64v64h-64v-128h128v64zM768 640v-64h64v64h-64zM576 768v-64h-128v-64h-64v-128h64v-64h128v-128h-128v-64h128v-64h64v64h128v64h64v128h-64v64h-128v128h128v64h-128v64h-64zM640 448h64v-128h-64v128zM576 640v-128h-64v128h64zM448 128v-64h512v64h-512zM256 832h-64v-320h64v320zM960 832v64h-704v-64h704zM1024 832h-64v-704h64v704z" />
<glyph unicode="&#xe642;" d="M896 768v64h-704v-64h-64v-704h64v-64h704v64h64v704h-64zM704 576h64v-64h-64v64h-128v-128h128v-64h64v-128h-64v-64h-128v-64h-64v64h-128v64h-64v64h64v-64h128v128h-128v64h-64v128h64v64h128v64h64v-64h128v-64zM512 576h-64v-128h64v128zM640 384h-64v-128h64v128z" />
<glyph unicode="&#xe643;" d="M192 256h-64v-128h128v64h-64v64zM384 448h-384v-448h384v448zM64 384h64v-64h128v64h64v-320h-256v320zM256 192h-64v-64h64v64zM192 192v64h-64v-64h64zM448 384h64v-64h128v128h-128v64h-64v-128zM768 448h-64v-128h64v128zM576 512h64v128h-64v-128zM960 832v64h-640v-64h-64v-320h192v128h64v64h128v64h64v-64h128v-64h64v-64h-64v64h-128v-128h128v-64h64v-128h-64v-64h-128v-64h-64v64h-128v64h-64v-256h512v64h64v704h-64z" />
<glyph unicode="&#xe644;" d="M1024 384h-320v-64h64v-64h64v-64h64v64h64v64h64v64zM256 256v64h-64v-64h64zM576 576v-64h64v64h-64zM576 576v64h-128v64h-64v-64h-128v-64h-64v-128h64v-64h128v-128h-128v-64h128v-64h64v64h128v64h64v128h-64v64h-128v128h128zM320 448v128h64v-128h-64zM448 384h64v-128h-64v128zM768 576v-64h-64v-64h320v64h-64v64h-64v64h-64v-64h-64zM128 64v-64h704v64h64v64h-128v-64h-640zM128 768h-64v-704h64v704zM896 704v64h-64v64h-704v-64h640v-64h128z" />
<glyph unicode="&#xe645;" d="M704 576h-64v-64h64v64zM640 384v64h-128v128h128v64h-128v64h-64v-64h-128v-256h128v-128h-128v-64h128v-64h64v64h128v64h64v128h-64zM448 448h-64v128h64v-128zM576 384v-128h-64v128h64zM192 704h-64v-64h-64v-64h-64v-64h128v-448h64v-64h512v64h-384v64h-64v640h-64v-64zM832 768v64h-576v-64h448v-64h64v-640h64v64h64v64h64v64h64v64h-128v448h-64z" />
<glyph unicode="&#xe646;" d="M960 832v64h-832v-64h-64v-832h64v-64h832v64h64v832h-64zM832 768v-64h64v-192h-64v-64h-64v-320h-64v-64h-64v64h-64v320h-64v64h-64v192h64v64h64v-192h64v-64h64v64h64v192h64zM192 384h64v384h64v-384h64v-320h-192v320z" />
<glyph unicode="&#xe647;" d="M192 192h-64v-128h128v64h-64v64zM1024 896h-64v64h-832v-64h-64v-448h384v-448h512v64h64v832zM832 768h64v-192h-64v-64h-64v-320h-64v-64h-64v64h-64v320h-64v64h-64v192h64v64h64v-192h64v-64h64v64h64v192h64v-64zM384 384h-384v-448h384v448zM256 256v64h64v-320h-256v320h64v-64h128zM192 128v64h-64v-64h64zM192 128v-64h64v64h-64z" />
<glyph unicode="&#xe648;" d="M832 192v128h-128v-128h128zM384 192v128h-128v-128h128zM480 320v-128h128v128h-128zM320 768v64h-256v-832h256v64h-128v704h128zM768 832v-64h128v-704h-128v-64h256v832h-256z" />
<glyph unicode="&#xe649;" d="M1024 0v832h-960v-832h960zM192 64v704h704v-704h-704zM256 320v-64h576v64h-576zM512 192v-64h320v64h-320z" />
<glyph unicode="&#xe64a;" d="M128 576h-64v-448h64v64h64v64h64v64h64v64h-64v64h-64v64h-64v64zM1024 768v64h-512v-64h-128v-64h-64v-256h64v-64h128v-64h64v-320h128v768h64v-768h128v768h128z" />
<glyph unicode="&#xe64b;" d="M1024 576h-64v-64h-64v-64h-64v-64h-64v-64h64v-64h64v-64h64v-64h64v448zM768 768v64h-512v-64h-128v-64h-64v-256h64v-64h128v-64h64v-320h128v768h64v-768h128v768h128z" />
<glyph unicode="&#xe64c;" d="M992 416q0 185.6-131.2 316.8t-316.8 131.2-316.8-131.2-131.2-316.8 131.2-316.8 316.8-131.2 316.8 131.2 131.2 316.8zM768 512h-64v-64h-64v-64h64v-64h64v-128h-128v64h-64v64h-64v-64h-64v-64h-128v128h64v64h64v64h-64v64h-64v128h128v-64h64v-64h64v64h64v64h128v-128z" />
<glyph unicode="&#xe64d;" d="M960 448q0 185.6-131.2 316.8t-316.8 131.2-316.8-131.2-131.2-316.8 131.2-316.8 316.8-131.2 316.8 131.2 131.2 316.8zM448 128v128h128v-128h-128zM576 320h-128v448h128v-448z" />
<glyph unicode="&#xe64e;" d="M576 448v384h-128v-384h128zM640 606.72q28.16-16.32 52.48-40.96 75.52-75.52 75.52-181.76 0-106.56-75.52-180.48-73.92-75.52-180.48-75.52-106.24 0-181.76 75.52-74.24 73.92-74.24 180.48 0 106.24 74.24 181.76 25.28 24.64 53.76 41.28v140.16q-79.36-27.52-143.68-91.52-112.32-112.64-112.32-271.68t112.32-271.36q112.64-112.64 271.68-112.64t271.36 112.64q112.64 112.32 112.64 271.36t-112.64 271.68q-64 64-143.36 91.52v-140.48z" />
<glyph unicode="&#xe64f;" d="M192 448v-64h-64v-64h-64v-64h-64v-64h64v-64h64v-64h64v-64h64v128h320v192h-320v128h-64zM512 747.2q-79.36-27.52-143.68-91.52-64.102-64.285-91.84-143.68h43.52v-128h64q0 70.827 32.96 128 16.534 28.587 41.28 53.76 25.28 24.64 53.76 41.28v140.16zM820.48 565.76q75.52-75.52 75.52-181.76 0-106.56-75.52-180.48-73.92-75.52-180.48-75.52v-64h-64v-64h64q159.040 0 271.36 112.64 112.64 112.32 112.64 271.36t-112.64 271.68q-64 64-143.36 91.52v-140.48q28.16-16.32 52.48-40.96zM704 832h-128v-384h128v384z" />
<glyph unicode="&#xe650;" d="M576 0l320 448-448-320 128-128zM841.28 213.76q54.72-83.84 54.72-190.4 0-11.84 0-23.36h128q0 15.68 0 32 0 170.56-103.36 298.24l-79.36-116.48zM763.52 460.48q-99.2 51.52-219.52 51.52-198.72 0-339.52-140.48-140.48-140.8-140.48-339.52 0-16.32 0-32h128q0 11.52 0 23.36 0 145.92 103.040 248.96 103.36 103.040 248.96 103.040 48 0 91.2-11.2l128.32 96.32z" />
<glyph unicode="&#xe651;" d="M832 192v64h-64v-64h-64v-64h64v-64h64v-64h128v128h-64v64h-64zM832 512q0 159.040-112.64 271.68-112.32 112.32-271.36 112.32t-271.68-112.32q-112.32-112.64-112.32-271.68t112.32-271.36q112.64-112.64 271.68-112.64t271.36 112.64q112.64 112.32 112.64 271.36zM673.92 737.92q93.76-93.44 93.76-225.92 0-132.8-93.76-225.92-93.12-93.76-225.92-93.76-132.48 0-225.92 93.76-93.76 93.12-93.76 225.92 0 132.48 93.76 225.92 93.44 93.76 225.92 93.76 132.8 0 225.92-93.76z" />
<glyph unicode="&#xe652;" d="M320 128v64h-64v64h-64v-128h128zM832 128v-64h64v-64h128v128h-64v64h-64v64h-64v-64h-64v-64h64zM448 448h-384v-448h384v448zM128 384h64v-64h128v64h64v-320h-256v320zM256 192v64h-64v-64h64zM320 128v64h-64v-64h64zM896 512q0 159.040-112.64 271.68-112.32 112.32-271.36 112.32t-271.68-112.32q-112.32-112.64-112.32-271.68h64.32q0 132.48 93.76 225.92 93.44 93.76 225.92 93.76 132.8 0 225.92-93.76 93.76-93.44 93.76-225.92 0-132.8-93.76-225.92-93.12-93.76-225.92-93.76v-64.32q159.040 0 271.36 112.64 112.64 112.32 112.64 271.36z" />
<glyph unicode="&#xe653;" d="M832 447.68h64v64h-704v-64h64v-448h576v448zM704 447.68h64v-384h-64v384zM576 447.68h64v-384h-64v384zM448 447.68h64v-384h-64v384zM320 447.68h64v-384h-64v384zM640 704v64h-192v-64h-192v-64h-64v-64.32h704v64.32h-64v64h-192z" />
<glyph unicode="&#xe654;" d="M448 448h-384v-448h384v448zM128 384h64v-64h128v64h64v-320h-256v320zM320 128v64h-64v64h-64v-128h128zM1024 512v64h-704v-64h192v-448h448v448h64zM704 512h64v-384h-64v384zM576 512h64v-384h-64v384zM832 512h64v-384h-64v384zM960 704v64h-192v64h-192v-64h-192v-64h-64v-64h704v64h-64z" />
<glyph unicode="&#xe655;" d="M384 512h-64v-512h64v64h128v64h128v512h-128v-64h-128v-64zM128 640h-64v-512h64v-64h64v-64h64v512h-64v64h-64v64zM768 640h-64v-512h64v-64h128v-64h128v512h-128v64h-128v64z" />
<glyph unicode="&#xe656;" d="M384 704h-64v-128h64v128zM640 512v128h-192v-128h-192v128h-128v-640h832v640h-128v-128h-192zM576 384h128v-128h-128v128zM768 384h128v-128h-128v128zM384 384h128v-128h-128v128zM192 384h128v-128h-128v128zM320 192v-128h-128v128h128zM512 192v-128h-128v128h128zM896 192v-128h-128v128h128zM704 192v-128h-128v128h128zM768 704h-64v-128h64v128z" />
<glyph unicode="&#xe657;" d="M192 256h-64v-128h128v64h-64v64zM384 448h-384v-448h384v448zM64 384h64v-64h128v64h64v-320h-256v320zM256 192h-64v-64h64v64zM192 192v64h-64v-64h64zM448 768h-64v-128h64v128zM768 768v-128h64v128h-64zM1024 704h-128v-128h-192v128h-192v-128h-192v128h-128v-192h256v-64h128v-128h-128v-64h128v-128h-128v-64h576v640zM640 448h128v-128h-128v128zM832 448h128v-128h-128v128zM960 128h-128v128h128v-128zM768 128h-128v128h128v-128z" />
<glyph unicode="&#xe658;" d="M256 384h-128v-128h-128v-128h128v-128h128v128h128v128h-128v128zM448 768h-64v-128h64v128zM768 640h64v128h-64v-128zM1024 704h-128v-128h-192v128h-192v-128h-192v128h-128v-256h192v-128h64v128h128v-128h-128v-64h128v-128h-128v-64h576v640zM640 448h128v-128h-128v128zM832 448h128v-128h-128v128zM960 128h-128v128h128v-128zM768 128h-128v128h128v-128z" />
<glyph unicode="&#xe659;" d="M640 0v768h-256v-768h256zM576 704v-448h-128v448h128zM320 768h-256v-768h256v768zM128 704h128v-192h-128v192zM960 768h-256v-768h256v768zM768 384v320h128v-320h-128z" />
<glyph unicode="&#xe65a;" d="M192 192v64h-64v-128h128v64h-64zM704 64v768h-256v-768h256zM640 768v-448h-128v448h128zM384 512v320h-256v-320h256zM320 768v-192h-128v192h128zM384 448h-384v-448h384v448zM64 384h64v-64h128v64h64v-320h-256v320zM192 192v64h-64v-64h64zM256 192h-64v-64h64v64zM1024 832h-256v-768h256v768zM832 768h128v-320h-128v320z" />
<glyph unicode="&#xe65b;" d="M704 64v768h-256v-768h256zM640 768v-448h-128v448h128zM384 832h-256v-384h192v-128h64v512zM320 768v-192h-128v192h128zM256 384h-128v-128h-128v-128h128v-128h128v128h128v128h-128v128zM1024 832h-256v-768h256v768zM832 768h128v-320h-128v320z" />
<glyph unicode="&#xe65c;" d="M320 448h-256v-448h256v448zM960 256h-256v-256h256v256zM640 768h-256v-768h256v768z" />
<glyph unicode="&#xe65d;" d="M640 704v64h-256v-64h-192v-704h640v704h-192zM640 640h128v-576h-512v576h128v-64h256v64zM704 384h-384v-64h384v64zM448 256v-64h256v64h-256zM704 448v64h-384v-64h384z" />
<glyph unicode="&#xe65e;" d="M832 896v-192h-192v-192h-192v-192h-192v-192h-192v-192h960v960h-192z" />
<glyph unicode="&#xe65f;" d="M64 896v-960h960v960h-960zM192 768h704v-704h-704v704zM576 448v-64h-64v-64h-64v-64h-64v-64h-64v-64h512v512h-64v-64h-64v-64h-64v-64h-64z" />
<glyph unicode="&#xe660;" d="M576 512v64h-64v-64h-64v-256h-128v64h-64v-64h-64v-192h192v64h64v-64h64v-64h64v64h64v64h64v-64h192v192h-64v64h-64v-64h-128v256h-64zM576 320h-64v128h64v-128z" />
<glyph unicode="&#xe661;" d="M256 64v-64h512v64h-512zM512 640h-64v-64h64v64zM512 704v64h-64v-64h64zM576 640v64h-64v-64h64zM768 448v64h-512v-320h64v-64h384v64h64v64h128v192h-128zM768 384h64v-64h-64v64z" />
<glyph unicode="&#xe662;" d="M640 512v-64h-64v-64h-64v64h-64v64h-128v-64h-64v-192h64v-64h64v-64h64v-64h64v-64h64v64h64v64h64v64h64v64h64v192h-64v64h-128z" />
<glyph unicode="&#xe663;" d="M256 832v-832h512v832h-512zM448 64v64h128v-64h-128zM320 768h384v-576h-384v576z" />
<glyph unicode="&#xe664;" d="M128 0h512v832h-512v-832zM320 64v64h128v-64h-128zM192 192v576h384v-576h-384zM704 768v-64h128v-512h-128v-128h192v704h-192z" />
<glyph unicode="&#xe665;" d="M559.68 767.68q-7.68 0.32-15.68 0.32-145.92 0-248.96-103.040t-103.040-248.96q0-8 0.32-15.68 5.12-135.68 102.72-232.96 103.040-103.36 248.96-103.36t248.64 103.36q103.36 102.72 103.36 248.64t-103.36 248.96q-97.28 97.6-232.96 102.72zM747.52 619.84q84.48-84.48 84.48-203.84t-84.48-203.52q-84.16-84.48-203.52-84.48t-203.84 84.48q-84.16 84.16-84.16 203.52t84.16 203.84q84.48 84.16 203.84 84.16t203.52-84.16zM704 384h-128v192h-64v-256h192v64z" />
<glyph unicode="&#xe666;" d="M559.68 767.68q-7.68 0.32-15.68 0.32-145.92 0-248.96-103.040t-103.040-248.96q0-8 0.32-15.68 5.12-135.68 102.72-232.96 103.040-103.36 248.96-103.36t248.64 103.36q103.36 102.72 103.36 248.64t-103.36 248.96q-97.28 97.6-232.96 102.72zM576 384h128v-64h-192v256h64v-192z" />
<glyph unicode="&#xe667;" d="M896 448h-64v192h-192v64h-192v-64h-192v-192h-64v-192h64v-192h192v-64h192v64h192v192h64v192zM704 512v64h64v-64h-64v-64h-64v-64h192v-64h-192v-64h64v-64h64v-64h-64v64h-64v64h-64v-192h-64v192h-64v-64h-64v-64h-64v64h64v64h64v64h-192v64h192v64h-64v64h-64v64h64v-64h64v-64h64v192h64v-192h64v64h64zM512 320v-64h64v64h-64zM512 384h-64v-64h64v64zM640 384h-64v-64h64v64zM576 384v64h-64v-64h64z" />
<glyph unicode="&#xe668;" d="M384 448h-384v-448h384v448zM64 384h64v-64h128v64h64v-320h-256v320zM256 192h-64v-64h64v64zM192 192v64h-64v-64h64zM512 256v64h64v64h-128v-128h64zM704 512h-64v-64h64v64zM704 384h-64v-64h64v64zM768 384v64h-64v-64h64zM640 448h-64v-64h64v64zM576 768v-64h-192v-192h64v-64h128v64h-64v64h-64v64h64v-64h64v-64h64v192h64v-192h64v64h64v64h64v-64h-64v-64h-64v-64h192v-64h-192v-64h64v-64h64v-64h-64v64h-64v64h-64v-192h-64v192h-64v-64h-64v-64h-64v-64h128v-64h192v64h192v192h64v192h-64v192h-192v64h-192z" />
<glyph unicode="&#xe669;" d="M64 704h-64v-192h64v-64h64v-448h64v448h64v64h64v192h-64v64h-192v-64zM640 512v-64h64v64h-64zM704 384h-64v-64h64v64zM768 384v64h-64v-64h64zM640 448h-64v-64h64v64zM576 768v-64h-192v-256h192v64h-64v64h-64v64h64v-64h64v-64h64v192h64v-192h64v64h64v64h64v-64h-64v-64h-64v-64h192v-64h-192v-64h64v-64h64v-64h-64v64h-64v64h-64v-192h-64v192h-64v-64h-64v-64h-64v64h64v64h64v64h-192v64h-64v-128h64v-192h192v-64h192v64h192v192h64v192h-64v192h-192v64h-192z" />
<glyph unicode="&#xe66a;" d="M448 448h-256v-128h-192v-320h640v320h-192v128zM256 384h128v-64h-128v64zM576 448v64h-64v-64h64zM704 512h-64v-64h64v64zM768 384v64h-64v-64h64zM576 448v-64h64v64h-64zM768 704v64h-192v-64h-192v-192h128v64h-64v64h64v-64h64v-64h64v192h64v-192h64v64h64v64h64v-64h-64v-64h-64v-64h192v-64h-192v-64h64v-64h64v-64h-64v64h-64v64h-64v-256h64v64h192v192h64v192h-64v192h-192z" />
<glyph unicode="&#xe66b;" d="M0 448v-448h640v448h-640zM64 384h64v-64h64v-64h64v-64h128v64h64v64h64v64h64v-64h-64v-64h-64v-64h-64v-64h-128v64h-64v64h-64v64h-64v64zM768 384v64h-64v-64h64zM768 704v64h-192v-64h-192v-192h128v64h-64v64h64v-64h64v-64h64v192h64v-192h64v64h64v64h64v-64h-64v-64h-64v-64h192v-64h-192v-64h64v-64h64v-64h-64v64h-64v64h-64v-256h64v64h192v192h64v192h-64v192h-192z" />
<glyph unicode="&#xe66c;" d="M832 63.68h64v128h-64v-128zM896 447.68h-64v-128h64v128zM832 704v64h-640v-768.32h640v64h-64v128h64v128h-64v128h64v128h-64v128.32h64zM640 640v-128.32h-320v128.32h320zM896 704h-64v-128.32h64v128.32z" />
<glyph unicode="&#xe66d;" d="M320 384h-128v-128h-128v-128h128v-128h128v128h128v128h-128v128zM960 768v64h-640v-384h64v-128h128v-256h448v64h-64v128h64v128h-64v128h64v128h-64v128h64zM768 704v-128h-320v128h320zM960 128h64v128h-64v-128zM1024 512h-64v-128h64v128zM1024 768h-64v-128h64v128z" />
<glyph unicode="&#xe66e;" d="M448 448h-384v-448h384v448zM128 384h64v-64h128v64h64v-320h-256v320zM256 192v64h-64v-64h64zM320 128v64h-64v-64h64zM960 128h64v128h-64v-128zM1024 512h-64v-128h64v128zM896 768h64v64h-640v-320h192v-448h448v64h-64v128h64v128h-64v128h64v128h-64v128zM768 704v-128h-320v128h320zM1024 768h-64v-128h64v128z" />
<glyph unicode="&#xe66f;" d="M320 448h-192v-256h-128v-64h64v-64h64v-64h64v-64h64v64h64v64h64v64h64v64h-128v256zM960 128h64v128h-64v-128zM1024 512h-64v-128h64v128zM1024 768h-64v-128h64v128zM960 768v64h-640v-320h64v-256h128v-192h448v64h-64v128h64v128h-64v128h64v128h-64v128h64zM768 704v-128h-320v128h320z" />
<glyph unicode="&#xe670;" d="M704 384h64v64h64v64h-576v-64h64v-64h64v-64h64v-64h64v-256h64v256h64v64h64v64z" />
<glyph unicode="&#xe671;" d="M128 256h832v128h-832v-128zM128 192v-128h832v128h-832zM960 640v128h-832v-128h832zM960 448v128h-832v-128h832z" />
<glyph unicode="&#xe672;" d="M768 384h-64v64h-64v256h-192v-256h-64v-64h-64v-128h192v-256h64v256h192v128z" />
<glyph unicode="&#xe673;" d="M256 128h512v512h-512v-512z" />
<glyph unicode="&#xe674;" d="M448 640h-192v-512h192v512zM768 640h-192v-512h192v512z" />
<glyph unicode="&#xe675;" d="M640 576h-64v64h-64v64h-64v64h-64v-704h64v64h64v64h64v64h64v64h64v64h64v64h-64v64h-64v64z" />
<glyph unicode="&#xe676;" d="M640 384.32v-0.64h64v0.32h128v-320h64v64h64v64h64v320h-64v64h-256v-0.32h-64v0.64h-256v-0.32h-64v192h-64v-64h-64v-64h-64v-64h-64v-64h-64v-64h64v-64h64v-64h64v-64h64v-64h64v192h64v0.32h256z" />
<glyph unicode="&#xe677;" d="M768 448v64h-64v64h-64v64h-64v64h-64v64h-64v-192h-256v-320h256v-192h64v64h64v64h64v64h64v64h64v64h64v64h-64z" />
<glyph unicode="&#xe678;" d="M832 576.32h-256.32v191.68h-64v-64h-64v-64h-63.68v-64h-64v-64h-64v-64h-64v-64h64v-64h64v-64h64v-64h63.68v-64h64v-64h64v192.32h256.32v320z" />
<glyph unicode="&#xe679;" d="M832 384h64v64h-192.32v256h-320v-256h-191.68v-64h64v-64h64v-64h64v-64h64v-64h64v-64h64v64h64v64h64v64h64v64h64v64z" />
<glyph unicode="&#xe67a;" d="M575.68 704v64h-64v-64h-64v-64h-64v-64h-63.68v-64h-64v-64h-64v-64h192v-256h320v256h192v64h-64v64h-64v64h-64.32v64h-64v64h-64z" />
<glyph unicode="&#xe67b;" d="M640 384h64v64h-64v64h-64v64h-64v64h-64v64h-64v64h-64v-192h64v-64h64v-64h64v-64h-64v-64h-64v-64h-64v-192h64v64h64v64h64v64h64v64h64v64z" />
<glyph unicode="&#xe67c;" d="M704 768h-64v-64h-64v-64h-64v-64h-64v-64h-64v-64h-64v-64h64v-64h64v-64h64v-64h64v-64h64v-64h64v192h-64v64h-64v64h-64v64h64v64h64v64h64v192z" />
<glyph unicode="&#xe67d;" d="M704 384h64.32v64h63.68v64h64v64h-192v-64h-64v-64h-64v-64h-64v64h-64v64h-64v64h-192v-64h64v-64h64v-64h64v-64h64v-64h64v-64h64v64h64v64h64v64z" />
<glyph unicode="&#xe67e;" d="M768 384h-64.32v64h-64v64h-64v64h-64v-64h-64v-64h-64v-64h-64v-64h-63.68v-64h-64v-64h191.68v64h64v64h64v64h64v-64h64v-64h64v-64h192.32v64h-64v64h-64v64z" />
<glyph unicode="&#xe67f;" d="M640 384h64v64h-64v64h-64v64h-64v64h-64v64h-64v64h-64v-704h64v64h64v64h64v64h64v64h64v64z" />
<glyph unicode="&#xe680;" d="M640 704h-64v-64h-64v-64h-64v-64h-64v-64h-64v-64h64v-64h64v-64h64v-64h64v-64h64v-64h64v704h-64v-64z" />
<glyph unicode="&#xe681;" d="M768 384v64h64v64h64v64h-704v-64h64v-64h64v-64h64v-64h64v-64h64v-64h64v64h64v64h64v64h64z" />
<glyph unicode="&#xe682;" d="M575.68 512v64h-64v-64h-64v-64h-64v-64h-63.68v-64h-64v-64h-64v-64h704v64h-64v64h-64v64h-64.32v64h-64v64h-64z" />
<glyph unicode="&#xe683;" d="M256 704h-64v-192h64v-64h64v-64h-64v-64h-64v-192h64v64h64v64h64v64h64v64h64v64h-64v64h-64v64h-64v64h-64v64zM768 512h-64v64h-64v64h-64v64h-64v64h-64v-192h64v-64h64v-64h64v-64h-64v-64h-64v-64h-64v-192h64v64h64v64h64v64h64v64h64v64h64v64h-64v64z" />
<glyph unicode="&#xe684;" d="M576 575.68v192.32h-64v-64h-64v-64h-64v-64.32h-64v-64h-64v-64h-64v-64h64v-64h64v-64h64v-64h64v-64h64v-64h64v192h-64v64h-64v64h-64v64h64v64h64v64h64zM768 640h-64v-64.32h-64v-64h-64v-64h-64v-64h64v-64h64v-64h64v-64h64v-64h64v192h-64v64h-64v64h64v64h64v192.32h-64v-64z" />
<glyph unicode="&#xe685;" d="M768 704h-64v-64h-64v-64h-64v-64h-64v64h-64v64h-64v63.68h-64v-63.68h-64v-64h64v-64h64v-64h64v-64h-64v-64.32h-64v-64h-64v-63.68h64v-64.32h64v64.32h64v63.68h64v64h64v-64h64v-64h64v-64h64v64h64v64h-64v64h-64v64.32h-64v64h64v64h64v64h64v64h-64v64z" />
<glyph unicode="&#xe686;" d="M640 512v256h-192v-256h-256v-192h256v-256h192v256h256v192h-256z" />
<glyph unicode="&#xe687;" d="M896 320v192.32h-704v-192.32h704z" />
<glyph unicode="&#xe688;" d="M896 768v64h-704v-64h-64v-704h64v-64h704v64h64v704h-64zM704 703.68h64v-64h64v-64h-64v-64h-64v-64h-63.68v-64h63.68v-64h64v-64h64v-64h-64v-63.68h-64v63.68h-63.68v64h-64v64h-64v-64h-64v-63.68h-64v-64h-63.68v64h-64v63.68h64v64h63.68v64h64v64h-64v64h-63.68v64h-64v64h64v63.68h63.68v-63.68h64v-64h64v-64h64v64h64v64h63.68v64z" />
<glyph unicode="&#xe689;" d="M640 384h-64v-64h-64v-64h-64v-64h-64v64h-64v64h-128v-128h64v-64h64v-64h64v-64h64v64h64v64h64v64h64v64h64v64h64v64h64v64h64v128h-128v-64h-64v-64h-64v-64z" />
<glyph unicode="&#xe68a;" d="M832 512v-128h-64v-64h-64v-64h-64v-64h-64v-64h-64v-64h-64v-64h128v64h64v64h64v64h64v64h64v64h64v64h64v128h-128zM576 512v-64h-64v-64h-64v-64h-64v-64h-64v-64h-64v64h-64v64h-128v-128h64v-64h64v-64h64v-64h64v64h64v64h64v64h64v64h64v64h64v64h64v64h64v128h-128v-64h-64z" />
<glyph unicode="&#xe68b;" d="M767.68 512v-64h-64v-64h-64v-64h-64v-64h-64v-64h-64v64h-64v64h-64v-64h-64.32v-64h64.32v-64h64v-64h64v-64h64v64h64v64h64v64h64v64h64v64h64.32v64h64v64h64v128h-128v-64h-64.32zM575.68 384v64h-64v64h-64v64h64v64h64v64.32h-64v64h-64v-64h-64v-64.32h-64v64h-64v64h-64v-64h-63.68v-64h63.68v-64h64v-64h-64v-64h-63.68v-64h63.68v-63.68h64v63.68h64v64h64v-64h64v-64h64v64h64z" />
<glyph unicode="&#xe68c;" d="M256 512h-64v64h-128v-64h-64v-128h64v-64h128v64h64v128zM768 512v-128h64v-64h128v64h64v128h-64v64h-128v-64h-64zM576 512v64h-128v-64h-64v-128h64v-64h128v64h64v128h-64z" />
<glyph unicode="&#xe68d;" d="M1024 835.2q-1.28 51.2-37.44 87.36t-87.040 37.44h-774.72q-51.2-1.28-87.36-37.44t-37.44-87.36v-774.72q1.28-50.88 37.44-87.040t87.36-37.44h774.72q50.88 1.28 87.040 37.44t37.44 87.040v774.72zM931.84 867.84q27.28-27.28 28.16-65.28v-709.12q-0.88-38.32-28.16-65.6-25.165-25.165-59.52-27.84-4.1-0.32-8.32-0.32t-8.32 0.32h-687.36q-4.1-0.32-8.32-0.32t-8.32 0.32q-34.355 2.675-59.52 27.84-27.28 27.28-28.16 65.6v709.12q0.88 38 28.16 65.28t65.28 28.16h708.8q38.32-0.88 65.6-28.16z" />
<glyph unicode="&#xe68e;" d="M1024 835.2q-1.28 51.2-37.44 87.36t-87.040 37.44h-774.72q-51.2-1.28-87.36-37.44t-37.44-87.36v-774.72q1.28-50.88 37.44-87.040t87.36-37.44h774.72q50.88 1.28 87.040 37.44t37.44 87.040v774.72zM931.84 867.84q27.28-27.28 28.16-65.28v-709.12q-0.88-38.32-28.16-65.6-25.165-25.165-59.52-27.84-4.1-0.32-8.32-0.32t-8.32 0.32h-687.36q-4.1-0.32-8.32-0.32t-8.32 0.32q-34.355 2.675-59.52 27.84-27.28 27.28-28.16 65.6v709.12q0.88 38 28.16 65.28t65.28 28.16h708.8q38.32-0.88 65.6-28.16zM896 769.6q-0.59 25.55-18.88 43.84-17.98 17.98-43.52 18.56h-643.2q-25.55-0.58-43.84-18.56-17.98-18.29-18.56-43.84v-643.2q0.58-25.54 18.56-43.52 18.29-18.29 43.84-18.88h643.2q25.54 0.59 43.52 18.88 18.29 17.98 18.88 43.52v643.2z" />
<glyph unicode="&#xe68f;" d="M896 769.6q-0.59 25.55-18.88 43.84-17.98 17.98-43.52 18.56h-643.2q-25.55-0.58-43.84-18.56-17.98-18.29-18.56-43.84v-643.2q0.58-25.54 18.56-43.52 18.29-18.29 43.84-18.88h643.2q25.54 0.59 43.52 18.88 18.29 17.98 18.88 43.52v643.2z" />
<glyph unicode="&#xe690;" d="M1024 835.2q-1.28 51.2-37.44 87.36t-87.040 37.44h-774.72q-51.2-1.28-87.36-37.44t-37.44-87.36v-774.72q1.28-50.88 37.44-87.040t87.36-37.44h774.72q50.88 1.28 87.040 37.44t37.44 87.040v774.72z" />
<glyph unicode="&#xe691;" d="M1024 835.2q-1.28 51.2-37.44 87.36t-87.040 37.44h-774.72q-51.2-1.28-87.36-37.44t-37.44-87.36v-774.72q1.28-50.88 37.44-87.040t87.36-37.44h774.72q50.88 1.28 87.040 37.44t37.44 87.040v774.72zM704 640h64v64h128v-128h-64v-64h-64v-64h-64v-64h-64v-64h-64v-64h-64v-64h-64v-64h-64v64h-64v64h-64v64h-64v128h128v-64h64v-64h64v64h64v64h64v64h64v64h64v64z" />
<glyph unicode="&#xe692;" d="M1024 835.52q-1.17 50.77-37.44 87.040t-87.36 37.44h-774.72q-50.77-1.17-87.040-37.44t-37.44-87.040v-774.72q1.17-51.090 37.44-87.36t87.040-37.44h774.72q51.090 1.17 87.36 37.44t37.44 87.36v774.72zM832 512v-128h-640v128h640z" />
<glyph unicode="&#xe693;" d="M831.36 914.88q-1.28 43.52-45.12 45.12h-613.12q-43.52-1.6-45.12-45.12v-933.76q1.6-43.52 45.12-45.12h613.12q43.84 1.6 45.12 45.12v933.76zM735.68 896q15.36 0 23.36-7.68l0.96-0.96q7.36-8 7.36-23.36v-192q0-32-31.68-32h-513.6q-13.76 0.32-21.44 7.36-0.64 0.64-1.28 1.28-6.72 7.36-7.36 21.12v194.24q0 32 32 32h511.68zM730.24 538.56q1.92-1.92 3.84-3.84 32.32-35.2 33.28-83.52v-6.4q-0.96-50.88-37.12-87.040-36.48-36.48-87.36-37.76h-6.72q-4.16 0.32-8 0.32-42.56 3.52-74.24 32.96-2.24 2.24-4.48 4.48-1.6 1.6-3.2 3.2-30.4 32.32-33.92 75.52-0.32 4.16-0.64 8.32v6.4q1.28 50.88 37.76 87.36 36.16 36.48 86.72 37.44h6.72q48.64-0.96 83.84-34.24 1.92-1.6 3.52-3.2zM192 451.2q1.28 50.88 37.44 87.36 17.28 17.28 37.44 26.56 4.48 1.92 9.28 3.52 0.96 0.64 2.24 0.96 17.92 6.080 38.4 6.4h6.4q48.64-0.96 83.84-34.24 1.6-1.6 3.2-3.2 2.24-1.92 4.16-4.16 32.32-35.2 33.28-83.2v-6.4l-3.84-29.12q-1.28-4.48-2.56-8.96-0.32-1.28-0.96-2.56-0.32-1.28-0.96-2.88l-0.96-2.88q-0.96-1.6-1.6-3.2-9.28-20.48-26.56-37.44-36.16-36.48-87.040-37.76h-6.4q-48 1.28-83.2 33.6-1.92 1.92-4.16 4.16-1.6 1.6-2.88 3.2-33.28 35.2-34.56 83.84v6.4zM192 32v224h255.68v-256h-223.68q-15.36 0-23.36 7.68l-0.64 0.32q-8 8-8 24zM511.68 0v256h255.68v-224q0-16-8-24-7.68-8-23.68-8h-224z" />
<glyph unicode="&#xe694;" d="M310.4 201.6q9.6 9.28 9.6 22.4t-9.6 22.72q-9.28 9.28-22.4 9.28t-22.72-9.28q-9.135-9.45-9.28-19.2-0.15 9.75-9.6 19.2-9.28 9.28-22.4 9.28t-22.72-9.28q-9.28-9.6-9.28-22.72t9.28-22.4q1.6-1.6 3.2-2.88 2.24-1.92 5.12-3.2 6.4-3.52 14.4-3.52 3.2 0 6.080 0.32 4.48 0.96 8.64 3.2t7.68 6.080q9.45 9.135 9.6 18.56 0.145-9.425 9.28-18.56 1.6-1.6 3.2-2.88 2.24-1.92 5.12-3.2 6.4-3.52 14.4-3.52 3.2 0 6.080 0.32 4.48 0.96 8.64 3.2t7.68 6.080zM385.6 362.24q-1.6-4.48-1.6-9.6v-129.6q0-3.84 0.96-7.040 1.92-8 8.32-14.4 3.84-3.84 8.32-6.080 6.080-3.2 13.76-3.52h1.6q7.36 0.32 13.76 3.52 4.16 2.24 7.68 6.080 7.040 7.040 8.96 15.68 0.64 2.88 0.64 5.76v129.6q-0.32 12.8-9.6 22.080-8.96 8.96-21.44 9.28h-1.6q-12.8-0.32-22.080-9.28-5.44-5.76-7.68-12.48zM64 544.64q-0.32 12.8-9.6 22.080-8.96 8.96-21.44 9.28h-1.6q-12.8-0.32-22.080-9.28-8.96-9.28-9.28-22.080v-193.6q0.32-12.48 9.28-21.44 9.28-9.28 22.080-9.6h257.6q12.48 0.32 21.44 9.6 9.28 8.96 9.6 21.44v1.6q-0.32 12.8-9.6 22.080-8.96 8.96-21.44 9.28h-224.96v160.64zM160 512q-13.12 0-22.72-9.28-9.28-9.6-9.28-22.72t9.28-22.4q1.6-1.6 3.2-2.88 8.64-6.72 19.52-6.72 3.2 0 6.080 0.32 9.28 1.92 16.32 9.28 9.6 9.28 9.6 22.4t-9.6 22.72q-9.28 9.28-22.4 9.28zM576 384v160.64q-0.32 12.8-9.6 22.080-8.96 8.96-21.44 9.28h-1.6q-12.8-0.32-22.080-9.28-8.96-9.28-9.28-22.080v-193.6q0.32-12.48 9.28-21.44 9.28-9.28 22.080-9.6h449.6q12.48 0.32 21.44 9.6 9.28 8.96 9.6 21.44v1.6q-0.32 12.8-9.6 22.080-8.96 8.96-21.44 9.28h-416.96z" />
</font>
</defs>
</svg>
